<?xml version="1.0" standalone="no"?>
<!DOCTYPE svg PUBLIC "-//W3C//DTD SVG 20010904//EN"
 "http://www.w3.org/TR/2001/REC-SVG-20010904/DTD/svg10.dtd">
<svg version="1.0" xmlns="http://www.w3.org/2000/svg"
 width="192.000000pt" height="192.000000pt" viewBox="0 0 192.000000 192.000000"
 preserveAspectRatio="xMidYMid meet">

<g transform="translate(0.000000,192.000000) scale(0.100000,-0.100000)"
fill="#000000" stroke="none">
<path d="M1032 1862 c-2 -27 -30 -84 -46 -94 -6 -4 16 -8 49 -8 46 1 56 3 43
11 -10 5 -18 17 -18 24 0 8 -4 15 -9 15 -6 0 -12 17 -14 38 -2 20 -4 27 -5 14z"/>
<path d="M930 1799 c0 -22 4 -38 8 -35 8 5 4 76 -4 76 -2 0 -4 -18 -4 -41z"/>
<path d="M916 1719 c18 -20 18 -21 0 -34 -15 -11 -17 -21 -11 -54 4 -23 11
-43 16 -47 5 -3 9 -14 9 -25 0 -14 7 -19 26 -19 29 0 53 24 54 53 0 19 20 24
20 5 0 -7 7 -2 16 11 10 13 17 45 18 77 l1 54 -33 0 c-20 0 -31 -4 -27 -10 4
-6 4 -24 0 -40 -5 -25 -12 -30 -36 -30 -24 0 -29 4 -29 25 0 14 4 25 9 25 5 0
11 7 15 15 4 12 -3 15 -31 15 -36 0 -36 0 -17 -21z"/>
<path d="M930 1481 c0 -29 -5 -41 -17 -44 -17 -4 -17 -5 0 -6 14 -1 17 -11 17
-61 l0 -60 30 0 c30 0 30 0 30 59 0 48 3 60 18 64 16 4 16 5 0 6 -14 1 -18 10
-18 41 0 38 -2 40 -30 40 -28 0 -30 -2 -30 -39z"/>
<path d="M913 1283 c15 -4 17 -13 15 -56 -3 -44 -6 -52 -25 -55 -17 -2 -22
-11 -25 -43 l-4 -39 86 0 86 0 -4 39 c-3 32 -8 41 -25 43 -19 3 -22 11 -25 55
-2 43 0 52 15 56 10 3 -11 5 -47 5 -36 0 -57 -2 -47 -5z"/>
<path d="M1102 1193 l-2 -103 80 0 80 0 0 66 c0 41 -4 63 -10 59 -5 -3 -10 -1
-10 4 0 16 -107 14 -117 -1 -5 -8 -10 4 -14 32 -4 31 -6 14 -7 -57z"/>
<path d="M1252 1260 c0 -19 2 -27 5 -17 2 9 2 25 0 35 -3 9 -5 1 -5 -18z"/>
<path d="M612 968 l-2 -108 95 0 95 0 0 50 c0 55 5 52 -85 54 -27 1 -60 -2
-72 -6 -21 -7 -22 -4 -26 55 -2 41 -4 25 -5 -45z"/>
<path d="M838 1058 c17 -17 16 -155 0 -161 -10 -4 -10 -6 0 -6 6 -1 12 -8 12
-16 0 -12 19 -15 110 -15 91 0 110 3 110 15 0 8 7 15 15 15 8 0 15 -7 15 -15
0 -13 14 -15 80 -14 l80 2 0 28 c0 15 4 29 9 31 5 2 12 22 14 46 3 31 0 42 -9
42 -9 0 -14 11 -14 30 l0 30 -217 0 c-169 0 -214 -3 -205 -12z m262 -23 c0
-16 -6 -25 -15 -25 -15 0 -21 31 -8 43 13 14 23 6 23 -18z m-12 -97 c-10 -8
-10 -11 0 -15 17 -7 15 -23 -3 -23 -11 0 -15 11 -15 36 0 32 2 35 15 24 13
-11 13 -15 3 -22z"/>
<path d="M1373 905 c0 -27 2 -38 4 -22 2 15 2 37 0 50 -2 12 -4 0 -4 -28z"/>
<path d="M610 770 c0 -56 -3 -70 -15 -70 -10 0 -15 -10 -15 -30 l0 -30 325 0
c210 0 325 4 325 10 0 6 7 10 15 10 14 0 20 13 15 35 -1 6 4 4 11 -2 15 -15
39 -17 39 -4 0 5 -9 11 -21 14 -17 5 -19 9 -10 26 16 29 14 71 -4 71 -8 0 -15
9 -15 20 0 18 -7 20 -80 20 -90 0 -84 7 -80 -92 1 -39 -2 -48 -15 -48 -13 0
-16 9 -15 48 4 101 14 92 -110 92 l-110 0 0 -70 c0 -56 -3 -70 -15 -70 -10 0
-15 11 -15 35 0 19 -4 35 -10 35 -5 0 -10 16 -10 35 l0 35 -95 0 -95 0 0 -70z"/>
<path d="M1334 802 c3 -5 0 -13 -6 -15 -9 -4 -10 -6 -1 -6 17 -1 25 16 12 25
-7 4 -9 3 -5 -4z"/>
<path d="M593 607 c12 -8 18 -22 15 -38 -3 -23 -6 -24 -76 -24 -49 0 -72 -4
-72 -12 0 -7 -22 -22 -50 -35 -27 -13 -50 -26 -50 -30 0 -5 -8 -8 -19 -8 -24
0 -35 -36 -13 -45 16 -6 499 -4 650 3 69 3 83 6 78 18 -3 8 -2 13 3 9 5 -3 12
1 14 7 4 10 6 10 6 1 1 -20 21 -15 41 9 13 17 15 25 7 30 -16 10 12 30 34 24
12 -2 15 3 11 21 -4 22 -2 24 17 18 16 -5 21 -2 21 12 0 15 -2 16 -10 3 -7
-11 -10 -11 -10 -2 0 7 -5 10 -12 6 -7 -4 -8 -3 -4 5 4 6 11 9 16 6 5 -3 11
-1 15 5 4 6 12 7 18 3 8 -5 8 -2 -1 9 -10 13 -56 15 -330 17 -269 2 -314 0
-299 -12z m512 -127 c3 -5 1 -10 -4 -10 -6 0 -11 5 -11 10 0 6 2 10 4 10 3 0
8 -4 11 -10z"/>
<path d="M341 378 c1 -7 1 -37 0 -65 -1 -40 -5 -53 -16 -53 -20 0 -19 -10 2
-25 14 -10 16 -30 14 -124 l-2 -111 215 0 c137 0 216 4 216 10 0 6 10 10 23
10 23 0 62 20 40 20 -7 0 -13 5 -13 11 0 5 5 7 11 3 7 -4 9 1 7 12 -2 11 4 24
17 32 19 13 19 13 0 8 -19 -6 -20 -1 -20 104 0 83 3 111 13 115 22 8 32 -4 32
-42 0 -30 2 -34 15 -23 11 9 18 10 29 1 24 -20 60 -8 73 24 15 40 16 58 1 50
-7 -4 -2 3 12 14 14 11 21 21 15 22 -5 1 4 5 20 9 17 4 -136 8 -338 9 -292 1
-368 -1 -366 -11z m188 -48 c38 0 56 -5 71 -20 30 -30 25 -40 -12 -29 -47 13
-48 13 -48 -27 0 -34 2 -36 26 -30 21 6 25 4 22 -11 -2 -10 -13 -19 -26 -21
-16 -3 -22 -10 -22 -28 0 -20 5 -24 28 -24 43 0 56 -13 33 -34 -16 -15 -25
-16 -61 -6 -22 6 -50 8 -60 5 -11 -4 -20 -2 -20 4 0 5 9 13 21 16 18 6 20 14
17 68 -1 34 1 72 5 83 6 18 3 23 -17 28 -14 3 -30 16 -36 27 -10 19 -10 20 9
10 11 -6 42 -11 70 -11z m456 -49 c-3 -6 -11 -8 -17 -5 -6 4 -5 9 3 15 16 10
23 4 14 -10z m-304 -20 c27 14 49 -25 49 -89 0 -38 -4 -54 -15 -59 -23 -8 -29
3 -36 65 l-6 57 -2 -57 c-2 -99 -48 -86 -52 15 -2 42 1 61 12 67 8 5 18 5 23
0 5 -5 16 -5 27 1z m129 -6 c16 -19 3 -38 -22 -32 -18 5 -20 2 -14 -26 6 -33
32 -61 47 -51 13 8 11 -10 -3 -24 -17 -17 -38 -15 -60 5 -26 23 -25 96 2 123
24 24 34 25 50 5z m-56 -233 c3 -5 -1 -9 -9 -9 -8 0 -12 4 -9 9 3 4 7 8 9 8 2
0 6 -4 9 -8z"/>
<path d="M1025 340 c-2 -3 5 -7 16 -7 10 -1 19 2 19 6 0 9 -29 10 -35 1z"/>
<path d="M940 229 c0 -5 5 -7 10 -4 6 3 10 8 10 11 0 2 -4 4 -10 4 -5 0 -10
-5 -10 -11z"/>
<path d="M883 190 c6 -58 19 -64 16 -7 -2 26 -7 47 -11 47 -5 0 -7 -18 -5 -40z"/>
<path d="M945 190 c3 -5 8 -10 11 -10 2 0 4 5 4 10 0 6 -5 10 -11 10 -5 0 -7
-4 -4 -10z"/>
</g>
</svg>
