<?xml version="1.0" encoding="UTF-8"?>
<svg version="1.1" xmlns="http://www.w3.org/2000/svg" width="192" height="192">
<path d="M0 0 C0.99 0.33 1.98 0.66 3 1 C3.02578125 1.60328125 3.0515625 2.2065625 3.078125 2.828125 C3.45721669 8.16987156 4.00663697 10.27286117 8 14 C7.75 16.75 7.75 16.75 7 19 C6.34 19 5.68 19 5 19 C5.495 24.445 5.495 24.445 6 30 C5.34 30.33 4.68 30.66 4 31 C3.67 31.99 3.34 32.98 3 34 C2.34 34 1.68 34 1 34 C1 34.66 1 35.32 1 36 C0.01 36 -0.98 36 -2 36 C-2 39.63 -2 43.26 -2 47 C-1.01 47 -0.02 47 1 47 C1 47.99 1 48.98 1 50 C0.01 50 -0.98 50 -2 50 C-2 53.63 -2 57.26 -2 61 C-0.515 61.495 -0.515 61.495 1 62 C0.67 65.3 0.34 68.6 0 72 C0.66 72.33 1.32 72.66 2 73 C0.68 73.33 -0.64 73.66 -2 74 C-0.35 74 1.3 74 3 74 C3 76.64 3 79.28 3 82 C3.99 82 4.98 82 6 82 C6.33 82.33 6.66 82.66 7 83 C6.99476318 82.36497559 6.98952637 81.72995117 6.98413086 81.07568359 C6.96323744 78.17546595 6.95030066 75.2752642 6.9375 72.375 C6.92912109 71.37597656 6.92074219 70.37695312 6.91210938 69.34765625 C6.8958913 64.44979725 6.95681463 59.81343801 8 55 C8.66 55 9.32 55 10 55 C10 59.29 10 63.58 10 68 C13.96 68 17.92 68 22 68 C22 63.71 22 59.42 22 55 C22.66 55 23.32 55 24 55 C25.50606515 58.01213029 25.12160331 61.11282622 25.09765625 64.4140625 C25.0962413 65.14370209 25.09482635 65.87334167 25.09336853 66.62509155 C25.08776531 68.95843585 25.07521235 71.29168464 25.0625 73.625 C25.05748541 75.20572778 25.05292243 76.78645707 25.04882812 78.3671875 C25.03779484 82.24482854 25.02052811 86.12239807 25 90 C25.99 90 26.98 90 28 90 C28.09321898 95.8210076 27.9582367 101.25057979 27 107 C27.30027117 108.67293936 27.63557767 110.33985384 28 112 C28.03824623 114.33301986 28.04574284 116.66711508 28 119 C28.66 119 29.32 119 30 119 C29.505 114.545 29.505 114.545 29 110 C30.65 109.67 32.3 109.34 34 109 C33.98839844 108.2265625 33.97679687 107.453125 33.96484375 106.65625 C33.91290155 100.66063636 34.08815844 94.92697017 35 89 C35.66 89 36.32 89 37 89 C38.03026944 95.69675136 38.10152799 102.2314676 38 109 C39.65 109.33 41.3 109.66 43 110 C43 115.28 43 120.56 43 126 C43.66 126 44.32 126 45 126 C45 127.32 45 128.64 45 130 C45.66 130 46.32 130 47 130 C47.19441368 132.2910905 47.38033135 134.58290337 47.5625 136.875 C47.71912109 138.78925781 47.71912109 138.78925781 47.87890625 140.7421875 C48 144 48 144 47 146 C46.9310528 147.37342831 46.91532292 148.75002102 46.9375 150.125 C46.958125 151.40375 46.97875 152.6825 47 154 C47.99 154 48.98 154 50 154 C50 155.32 50 156.64 50 158 C52.31 158.33 54.62 158.66 57 159 C57 160.65 57 162.3 57 164 C57.99 164 58.98 164 60 164 C60 173.24 60 182.48 60 192 C17.43 192 -25.14 192 -69 192 C-69 184.41 -69 176.82 -69 169 C-69.99 169 -70.98 169 -72 169 C-72 167.68 -72 166.36 -72 165 C-71.01 165 -70.02 165 -69 165 C-68.97291433 163.39592672 -68.95356517 161.7917215 -68.9375 160.1875 C-68.92589844 159.29417969 -68.91429687 158.40085938 -68.90234375 157.48046875 C-68.88990033 154.86586209 -68.88990033 154.86586209 -70 152 C-70.66 151.67 -71.32 151.34 -72 151 C-72 149.02 -72 147.04 -72 145 C-70.35 145 -68.7 145 -67 145 C-67 144.34 -67 143.68 -67 143 C-63.70450534 141.27735506 -60.66881155 139.70554068 -57 139 C-56.505 135.04 -56.505 135.04 -56 131 C-55.34 131 -54.68 131 -54 131 C-54 132.98 -54 134.96 -54 137 C-50.04 137 -46.08 137 -42 137 C-42 135.35 -42 133.7 -42 132 C-42.99 132 -43.98 132 -45 132 C-45 128.37 -45 124.74 -45 121 C-44.01 121 -43.02 121 -42 121 C-42.00523682 119.90534424 -42.01047363 118.81068848 -42.01586914 117.68286133 C-42.03400733 113.61076682 -42.04546423 109.53867587 -42.05493164 105.46655273 C-42.0599517 103.70612995 -42.0667691 101.94571132 -42.07543945 100.18530273 C-42.08760703 97.65086846 -42.09325166 95.11648946 -42.09765625 92.58203125 C-42.10281754 91.79850784 -42.10797882 91.01498444 -42.11329651 90.2077179 C-42.11369066 86.34408861 -41.9444276 82.754835 -41 79 C-40.34 79 -39.68 79 -39 79 C-39 84.28 -39 89.56 -39 95 C-37.76732652 93.99163938 -37.76732652 93.99163938 -37.90234375 91.93359375 C-37.91394531 91.10988281 -37.92554688 90.28617187 -37.9375 89.4375 C-37.94652344 88.61121094 -37.95554688 87.78492187 -37.96484375 86.93359375 C-37.97644531 86.29550781 -37.98804688 85.65742187 -38 85 C-36.10786631 87.38573379 -34.97608217 89.07175348 -34 92 C-31.69 92 -29.38 92 -27 92 C-27 91.01 -27 90.02 -27 89 C-26.34 89 -25.68 89 -25 89 C-24.67 89.99 -24.34 90.98 -24 92 C-23.49041748 92.46510986 -22.98083496 92.93021973 -22.45581055 93.40942383 C-20.53760723 95.50519687 -20.65057457 96.6452035 -20.70703125 99.44921875 C-20.7215332 100.72055664 -20.7215332 100.72055664 -20.73632812 102.01757812 C-20.76146484 102.89865234 -20.78660156 103.77972656 -20.8125 104.6875 C-20.83280273 106.02651367 -20.83280273 106.02651367 -20.85351562 107.39257812 C-20.88885921 109.59566166 -20.93819507 111.79752582 -21 114 C-20.34 114 -19.68 114 -19 114 C-18.67 111.03 -18.34 108.06 -18 105 C-18.99 104.505 -18.99 104.505 -20 104 C-20 103.01 -20 102.02 -20 101 C-19.34 101 -18.68 101 -18 101 C-17.94558344 99.10448978 -17.90701965 97.2085208 -17.875 95.3125 C-17.85179687 94.25675781 -17.82859375 93.20101562 -17.8046875 92.11328125 C-18.00141271 88.97748141 -18.66942346 86.82354627 -20 84 C-19.34 83.34 -18.68 82.68 -18 82 C-17.01 82 -16.02 82 -15 82 C-15 79.36 -15 76.72 -15 74 C-13.35 74 -11.7 74 -10 74 C-11.32 73.34 -12.64 72.68 -14 72 C-13.34 72 -12.68 72 -12 72 C-12.33 68.7 -12.66 65.4 -13 62 C-12.01 61.67 -11.02 61.34 -10 61 C-10 57.37 -10 53.74 -10 50 C-10.99 50 -11.98 50 -13 50 C-13 49.01 -13 48.02 -13 47 C-12.01 47 -11.02 47 -10 47 C-10 42.71 -10 38.42 -10 34 C-10.66 34 -11.32 34 -12 34 C-13.13480527 30.39006828 -13.10015767 27.0157673 -13.0625 23.25 C-13.05347656 22.07953125 -13.04445312 20.9090625 -13.03515625 19.703125 C-13.02355469 18.81109375 -13.01195312 17.9190625 -13 17 C-12.01 16.67 -11.02 16.34 -10 16 C-10.02320313 15.31292969 -10.04640625 14.62585937 -10.0703125 13.91796875 C-10.08835938 13.01691406 -10.10640625 12.11585937 -10.125 11.1875 C-10.14820313 10.29417969 -10.17140625 9.40085937 -10.1953125 8.48046875 C-10 6 -10 6 -8 3 C-7 4 -7 4 -6.90234375 6.94140625 C-6.91394531 8.13636719 -6.92554687 9.33132813 -6.9375 10.5625 C-6.94652344 11.76003906 -6.95554687 12.95757812 -6.96484375 14.19140625 C-6.97644531 15.11824219 -6.98804687 16.04507812 -7 17 C-6.34 17 -5.68 17 -5 17 C-5 16.01 -5 15.02 -5 14 C-4.34 13.67 -3.68 13.34 -3 13 C-0.89172945 9.83759418 -0.66182535 8.49342531 -0.375 4.8125 C-0.30023438 3.91144531 -0.22546875 3.01039062 -0.1484375 2.08203125 C-0.07496094 1.05142578 -0.07496094 1.05142578 0 0 Z M-4 19 C-4.33 19.99 -4.66 20.98 -5 22 C-5.99 22.495 -5.99 22.495 -7 23 C-5.35 23 -3.7 23 -2 23 C-2 21.68 -2 20.36 -2 19 C-2.66 19 -3.32 19 -4 19 Z M6 88 C7 90 7 90 7 90 Z M6 104 C6 104.66 6 105.32 6 106 C-1.26 106 -8.52 106 -16 106 C-16 106.33 -16 106.66 -16 107 C-8.74 107 -1.48 107 6 107 C6.33 108.32 6.66 109.64 7 111 C7.67958603 108.60280568 7.67958603 108.60280568 8 106 C7.34 105.34 6.68 104.68 6 104 Z M6 113 C6 115.64 6 118.28 6 121 C6.33 121 6.66 121 7 121 C7 118.36 7 115.72 7 113 C6.67 113 6.34 113 6 113 Z " fill="#CD6554" transform="translate(102,0)"/>
<path d="M0 0 C0.99 0.33 1.98 0.66 3 1 C3.02578125 1.60328125 3.0515625 2.2065625 3.078125 2.828125 C3.45721669 8.16987156 4.00663697 10.27286117 8 14 C7.75 16.75 7.75 16.75 7 19 C6.34 19 5.68 19 5 19 C5.33 22.63 5.66 26.26 6 30 C5.34 30.33 4.68 30.66 4 31 C3.67 31.99 3.34 32.98 3 34 C2.34 34 1.68 34 1 34 C1 34.66 1 35.32 1 36 C0.01 36 -0.98 36 -2 36 C-2 39.63 -2 43.26 -2 47 C-1.01 47 -0.02 47 1 47 C1 47.99 1 48.98 1 50 C0.01 50 -0.98 50 -2 50 C-2 53.63 -2 57.26 -2 61 C-0.515 61.495 -0.515 61.495 1 62 C0.67 65.3 0.34 68.6 0 72 C0.66 72.33 1.32 72.66 2 73 C0.02 73.495 0.02 73.495 -2 74 C-0.35 74 1.3 74 3 74 C3 76.64 3 79.28 3 82 C3.99 82 4.98 82 6 82 C6.495 82.495 6.495 82.495 7 83 C6.99214478 82.04746338 6.99214478 82.04746338 6.98413086 81.07568359 C6.96323744 78.17546595 6.95030066 75.2752642 6.9375 72.375 C6.92912109 71.37597656 6.92074219 70.37695312 6.91210938 69.34765625 C6.8958913 64.44979725 6.95681463 59.81343801 8 55 C8.66 55 9.32 55 10 55 C10 59.29 10 63.58 10 68 C13.96 68 17.92 68 22 68 C22 63.71 22 59.42 22 55 C22.66 55 23.32 55 24 55 C25.50606515 58.01213029 25.12160331 61.11282622 25.09765625 64.4140625 C25.0962413 65.14370209 25.09482635 65.87334167 25.09336853 66.62509155 C25.08776531 68.95843585 25.07521235 71.29168464 25.0625 73.625 C25.05748541 75.20572778 25.05292243 76.78645707 25.04882812 78.3671875 C25.03779484 82.24482854 25.02052811 86.12239807 25 90 C25.99 90 26.98 90 28 90 C28.02725341 91.7290774 28.04650987 93.45828176 28.0625 95.1875 C28.07410156 96.15042969 28.08570313 97.11335938 28.09765625 98.10546875 C28 101 28 101 27 106 C21.06 106 15.12 106 9 106 C8.67 106.99 8.34 107.98 8 109 C7.34 108.01 6.68 107.02 6 106 C3.67699616 105.58390728 3.67699616 105.58390728 0.9921875 105.70703125 C-0.48701172 105.7215332 -0.48701172 105.7215332 -1.99609375 105.73632812 C-3.02863281 105.76146484 -4.06117187 105.78660156 -5.125 105.8125 C-6.16527344 105.82603516 -7.20554687 105.83957031 -8.27734375 105.85351562 C-10.85207627 105.88894772 -13.4257833 105.93834779 -16 106 C-16.33 108.31 -16.66 110.62 -17 113 C-17.33 113 -17.66 113 -18 113 C-18 110.36 -18 107.72 -18 105 C-18.66 104.67 -19.32 104.34 -20 104 C-20 103.01 -20 102.02 -20 101 C-19.34 101 -18.68 101 -18 101 C-17.94558344 99.10448978 -17.90701965 97.2085208 -17.875 95.3125 C-17.85179688 94.25675781 -17.82859375 93.20101562 -17.8046875 92.11328125 C-18.00141271 88.97748141 -18.66942346 86.82354627 -20 84 C-19.01 83.01 -19.01 83.01 -18 82 C-17.01 82 -16.02 82 -15 82 C-15 79.36 -15 76.72 -15 74 C-13.35 74 -11.7 74 -10 74 C-11.32 73.34 -12.64 72.68 -14 72 C-13.34 72 -12.68 72 -12 72 C-12.33 68.7 -12.66 65.4 -13 62 C-11.515 61.505 -11.515 61.505 -10 61 C-10 57.37 -10 53.74 -10 50 C-10.99 50 -11.98 50 -13 50 C-13 49.01 -13 48.02 -13 47 C-12.01 47 -11.02 47 -10 47 C-10 42.71 -10 38.42 -10 34 C-10.66 34 -11.32 34 -12 34 C-13.13480527 30.39006828 -13.10015767 27.0157673 -13.0625 23.25 C-13.05347656 22.07953125 -13.04445313 20.9090625 -13.03515625 19.703125 C-13.02355469 18.81109375 -13.01195313 17.9190625 -13 17 C-12.01 16.67 -11.02 16.34 -10 16 C-10.02320312 15.31292969 -10.04640625 14.62585937 -10.0703125 13.91796875 C-10.08835937 13.01691406 -10.10640625 12.11585937 -10.125 11.1875 C-10.14820312 10.29417969 -10.17140625 9.40085937 -10.1953125 8.48046875 C-10 6 -10 6 -8 3 C-7 4 -7 4 -6.90234375 6.94140625 C-6.91394531 8.13636719 -6.92554687 9.33132813 -6.9375 10.5625 C-6.94652344 11.76003906 -6.95554687 12.95757812 -6.96484375 14.19140625 C-6.97644531 15.11824219 -6.98804687 16.04507812 -7 17 C-6.34 17 -5.68 17 -5 17 C-5 16.01 -5 15.02 -5 14 C-4.34 13.67 -3.68 13.34 -3 13 C-0.89172945 9.83759418 -0.66182535 8.49342531 -0.375 4.8125 C-0.30023438 3.91144531 -0.22546875 3.01039062 -0.1484375 2.08203125 C-0.09945312 1.39496094 -0.05046875 0.70789062 0 0 Z M-4 19 C-4.33 19.99 -4.66 20.98 -5 22 C-5.99 22.495 -5.99 22.495 -7 23 C-5.35 23 -3.7 23 -2 23 C-2 21.68 -2 20.36 -2 19 C-2.66 19 -3.32 19 -4 19 Z M6 88 C7 90 7 90 7 90 Z " fill="#BF4F5E" transform="translate(102,0)"/>
<path d="M0 0 C0.99 0.33 1.98 0.66 3 1 C3.02578125 1.60328125 3.0515625 2.2065625 3.078125 2.828125 C3.45721669 8.16987156 4.00663697 10.27286117 8 14 C7.75 16.75 7.75 16.75 7 19 C6.34 19 5.68 19 5 19 C5.33 22.63 5.66 26.26 6 30 C5.34 30.33 4.68 30.66 4 31 C3.67 31.99 3.34 32.98 3 34 C2.34 34 1.68 34 1 34 C1 34.66 1 35.32 1 36 C0.01 36 -0.98 36 -2 36 C-2 39.63 -2 43.26 -2 47 C-1.01 47 -0.02 47 1 47 C1 47.99 1 48.98 1 50 C0.01 50 -0.98 50 -2 50 C-2 53.63 -2 57.26 -2 61 C-0.515 61.495 -0.515 61.495 1 62 C0.67 65.3 0.34 68.6 0 72 C0.66 72.33 1.32 72.66 2 73 C0.02 73.495 0.02 73.495 -2 74 C-0.35 74 1.3 74 3 74 C3.33 77.3 3.66 80.6 4 84 C-0.27210584 85.42403528 -4.30759282 84.86525691 -8.7734375 84.64453125 C-12.65406713 85.07205824 -14.21525223 86.34562432 -17 89 C-18.5 87.625 -18.5 87.625 -20 86 C-20 84 -20 84 -18 82 C-17.01 82 -16.02 82 -15 82 C-15 79.36 -15 76.72 -15 74 C-13.35 74 -11.7 74 -10 74 C-11.32 73.34 -12.64 72.68 -14 72 C-13.34 72 -12.68 72 -12 72 C-12.33 68.7 -12.66 65.4 -13 62 C-11.515 61.505 -11.515 61.505 -10 61 C-10 57.37 -10 53.74 -10 50 C-10.99 50 -11.98 50 -13 50 C-13 49.01 -13 48.02 -13 47 C-12.01 47 -11.02 47 -10 47 C-10 42.71 -10 38.42 -10 34 C-10.66 34 -11.32 34 -12 34 C-13.13480527 30.39006828 -13.10015767 27.0157673 -13.0625 23.25 C-13.05347656 22.07953125 -13.04445313 20.9090625 -13.03515625 19.703125 C-13.02355469 18.81109375 -13.01195313 17.9190625 -13 17 C-12.01 16.67 -11.02 16.34 -10 16 C-10.02320312 15.31292969 -10.04640625 14.62585937 -10.0703125 13.91796875 C-10.08835937 13.01691406 -10.10640625 12.11585937 -10.125 11.1875 C-10.14820312 10.29417969 -10.17140625 9.40085937 -10.1953125 8.48046875 C-10 6 -10 6 -8 3 C-7 4 -7 4 -6.90234375 6.94140625 C-6.91394531 8.13636719 -6.92554687 9.33132813 -6.9375 10.5625 C-6.94652344 11.76003906 -6.95554687 12.95757812 -6.96484375 14.19140625 C-6.97644531 15.11824219 -6.98804687 16.04507812 -7 17 C-6.34 17 -5.68 17 -5 17 C-5 16.01 -5 15.02 -5 14 C-4.34 13.67 -3.68 13.34 -3 13 C-0.89172945 9.83759418 -0.66182535 8.49342531 -0.375 4.8125 C-0.30023438 3.91144531 -0.22546875 3.01039062 -0.1484375 2.08203125 C-0.09945312 1.39496094 -0.05046875 0.70789062 0 0 Z M-4 19 C-4.33 19.99 -4.66 20.98 -5 22 C-5.99 22.495 -5.99 22.495 -7 23 C-5.35 23 -3.7 23 -2 23 C-2 21.68 -2 20.36 -2 19 C-2.66 19 -3.32 19 -4 19 Z " fill="#B53D64" transform="translate(102,0)"/>
<path d="M0 0 C0.66 0 1.32 0 2 0 C2 5.28 2 10.56 2 16 C3.23267348 14.99163938 3.23267348 14.99163938 3.09765625 12.93359375 C3.08605469 12.10988281 3.07445313 11.28617188 3.0625 10.4375 C3.05347656 9.61121094 3.04445313 8.78492187 3.03515625 7.93359375 C3.02355469 7.29550781 3.01195313 6.65742187 3 6 C4.89213369 8.38573379 6.02391783 10.07175348 7 13 C9.31 13 11.62 13 14 13 C14 12.01 14 11.02 14 10 C14.66 10 15.32 10 16 10 C16.33 10.99 16.66 11.98 17 13 C17.76763672 13.65935547 17.76763672 13.65935547 18.55078125 14.33203125 C20.64748639 16.74522019 20.29817383 18.55174159 20.1875 21.6875 C20.16042969 22.68136719 20.13335937 23.67523438 20.10546875 24.69921875 C20.07066406 25.45847656 20.03585938 26.21773437 20 27 C17.59564994 28.20217503 16.31618631 28.03897118 13.6484375 27.87890625 C12.79765625 27.83056641 11.946875 27.78222656 11.0703125 27.73242188 C10.18085937 27.67634766 9.29140625 27.62027344 8.375 27.5625 C7.4778125 27.51029297 6.580625 27.45808594 5.65625 27.40429688 C3.43715988 27.2744565 1.21850129 27.13948661 -1 27 C-1.02913821 23.4375173 -1.04684529 19.87506546 -1.0625 16.3125 C-1.07087891 15.30509766 -1.07925781 14.29769531 -1.08789062 13.25976562 C-1.09111328 12.28330078 -1.09433594 11.30683594 -1.09765625 10.30078125 C-1.10289307 9.40528564 -1.10812988 8.50979004 -1.11352539 7.5871582 C-0.99840198 4.96358241 -0.58234285 2.55706947 0 0 Z " fill="#B43C64" transform="translate(61,79)"/>
<path d="M0 0 C2.75 0.8125 2.75 0.8125 5 2 C4.67 2.66 4.34 3.32 4 4 C2.68 3.67 1.36 3.34 0 3 C-0.33 3.66 -0.66 4.32 -1 5 C-0.34 5.66 0.32 6.32 1 7 C0.01 8.485 0.01 8.485 -1 10 C-1.99 9.67 -2.98 9.34 -4 9 C-3.67 8.01 -3.34 7.02 -3 6 C-3.33 5.01 -3.66 4.02 -4 3 C-2.3125 1.375 -2.3125 1.375 0 0 Z " fill="#DF8447" transform="translate(124,170)"/>
<path d="M0 0 C0.33 0 0.66 0 1 0 C1 8.91 1 17.82 1 27 C0.67 27 0.34 27 0 27 C0 18.09 0 9.18 0 0 Z " fill="#EB953F" transform="translate(163,165)"/>
<path d="M0 0 C0.66 0 1.32 0 2 0 C2 3.3 2 6.6 2 10 C1.01 10.33 0.02 10.66 -1 11 C-0.67 7.37 -0.34 3.74 0 0 Z " fill="#B74061" transform="translate(110,55)"/>
<path d="M0 0 C0.66 0.33 1.32 0.66 2 1 C2 2.65 2 4.3 2 6 C0.35 6.33 -1.3 6.66 -3 7 C-2.67 5.68 -2.34 4.36 -2 3 C-1.34 3 -0.68 3 0 3 C0 2.01 0 1.02 0 0 Z " fill="#E28846" transform="translate(147,145)"/>
<path d="M0 0 C-0.33 1.98 -0.66 3.96 -1 6 C-1.66 5.67 -2.32 5.34 -3 5 C-3.99 4.67 -4.98 4.34 -6 4 C-6 3.34 -6 2.68 -6 2 C-3 0 -3 0 0 0 Z " fill="#DB7F4C" transform="translate(147,126)"/>
<path d="M0 0 C0.33 0 0.66 0 1 0 C1 6.93 1 13.86 1 21 C0.67 21 0.34 21 0 21 C0 14.07 0 7.14 0 0 Z " fill="#B53D66" transform="translate(58,85)"/>
<path d="M0 0 C0.99 0.33 1.98 0.66 3 1 C2.35455571 4.48539917 0.89865603 7.02819057 -1 10 C-2.125 6.25 -2.125 6.25 -1 4 C-0.34 4 0.32 4 1 4 C0.67 2.68 0.34 1.36 0 0 Z " fill="#EB933F" transform="translate(153,176)"/>
<path d="M0 0 C2.31 0.33 4.62 0.66 7 1 C6.67 1.66 6.34 2.32 6 3 C4.00239695 3.34740923 2.00212229 3.67966043 0 4 C-0.99 4.66 -1.98 5.32 -3 6 C-3 4.68 -3 3.36 -3 2 C-2.01 2 -1.02 2 0 2 C0 1.34 0 0.68 0 0 Z " fill="#DD8349" transform="translate(133,150)"/>
<path d="M0 0 C0.33 0 0.66 0 1 0 C1 6.6 1 13.2 1 20 C0.67 20 0.34 20 0 20 C0 13.4 0 6.8 0 0 Z " fill="#C0525D" transform="translate(128,63)"/>
<path d="M0 0 C2.15377564 2.62198774 3.40072174 4.64404172 4 8 C2.68 8.33 1.36 8.66 0 9 C0 6.03 0 3.06 0 0 Z " fill="#B9416C" transform="translate(64,85)"/>
<path d="M0 0 C0.33 0 0.66 0 1 0 C1 5.94 1 11.88 1 18 C0.67 18 0.34 18 0 18 C0 12.06 0 6.12 0 0 Z " fill="#BA4660" transform="translate(31,174)"/>
<path d="M0 0 C0.33 0.66 0.66 1.32 1 2 C1.66 2.33 2.32 2.66 3 3 C2.01 3.495 2.01 3.495 1 4 C1 5.32 1 6.64 1 8 C0.01 7.01 -0.98 6.02 -2 5 C-1.34 3.35 -0.68 1.7 0 0 Z " fill="#E78F41" transform="translate(144,166)"/>
<path d="M0 0 C0.33 1.32 0.66 2.64 1 4 C3.64 4 6.28 4 9 4 C9.33 3.01 9.66 2.02 10 1 C10 2.32 10 3.64 10 5 C6.7 5 3.4 5 0 5 C0 3.35 0 1.7 0 0 Z " fill="#C04C63" transform="translate(113,62)"/>
<path d="M0 0 C0.33 0.99 0.66 1.98 1 3 C3.64 3 6.28 3 9 3 C9.33 2.34 9.66 1.68 10 1 C10 1.99 10 2.98 10 4 C6.7 4 3.4 4 0 4 C0 2.68 0 1.36 0 0 Z " fill="#B84168" transform="translate(49,132)"/>
<path d="M0 0 C0.33 0 0.66 0 1 0 C1 3.96 1 7.92 1 12 C0.67 12 0.34 12 0 12 C0 8.04 0 4.08 0 0 Z " fill="#B63F67" transform="translate(58,108)"/>
<path d="M0 0 C0.33 0 0.66 0 1 0 C1 3.3 1 6.6 1 10 C0.67 10 0.34 10 0 10 C0 6.7 0 3.4 0 0 Z " fill="#B63C64" transform="translate(101,51)"/>
<path d="M0 0 C0.33 0 0.66 0 1 0 C1 3.3 1 6.6 1 10 C0.67 10 0.34 10 0 10 C0 6.7 0 3.4 0 0 Z " fill="#B53D64" transform="translate(90,51)"/>
<path d="M0 0 C0.33 0 0.66 0 1 0 C1 2.97 1 5.94 1 9 C0.67 9 0.34 9 0 9 C0 6.03 0 3.06 0 0 Z " fill="#DC8247" transform="translate(150,131)"/>
<path d="M0 0 C0.33 0 0.66 0 1 0 C1 2.97 1 5.94 1 9 C0.67 9 0.34 9 0 9 C0 6.03 0 3.06 0 0 Z " fill="#D16A52" transform="translate(141,97)"/>
<path d="M0 0 C0.33 0 0.66 0 1 0 C1 2.97 1 5.94 1 9 C0.67 9 0.34 9 0 9 C0 6.03 0 3.06 0 0 Z " fill="#CF6853" transform="translate(134,97)"/>
<path d="M0 0 C0.66 0 1.32 0 2 0 C2 1.98 2 3.96 2 6 C1.34 6 0.68 6 0 6 C0 4.02 0 2.04 0 0 Z " fill="#B94561" transform="translate(106,75)"/>
<path d="M0 0 C1.5 1.375 1.5 1.375 3 3 C3 3.66 3 4.32 3 5 C2.01 5.33 1.02 5.66 0 6 C0 4.02 0 2.04 0 0 Z " fill="#B84067" transform="translate(96,8)"/>
<path d="M0 0 C0.33 0 0.66 0 1 0 C1 2.64 1 5.28 1 8 C0.67 8 0.34 8 0 8 C0 5.36 0 2.72 0 0 Z " fill="#B43C65" transform="translate(31,156)"/>
<path d="M0 0 C0.33 0 0.66 0 1 0 C1 2.64 1 5.28 1 8 C0.67 8 0.34 8 0 8 C0 5.36 0 2.72 0 0 Z " fill="#B43C63" transform="translate(108,20)"/>
<path d="M0 0 C0.33 0 0.66 0 1 0 C1 2.64 1 5.28 1 8 C0.67 8 0.34 8 0 8 C0 5.36 0 2.72 0 0 Z " fill="#B73F69" transform="translate(90,8)"/>
<path d="M0 0 C0.33 0 0.66 0 1 0 C1 2.31 1 4.62 1 7 C0.67 7 0.34 7 0 7 C0 4.69 0 2.38 0 0 Z " fill="#B9416A" transform="translate(87,23)"/>
<path d="M0 0 C0.33 0 0.66 0 1 0 C1 1.98 1 3.96 1 6 C0.67 6 0.34 6 0 6 C0 4.02 0 2.04 0 0 Z " fill="#B94461" transform="translate(82,107)"/>
<path d="M0 0 C1.98 0.99 1.98 0.99 4 2 C2.68 2.33 1.36 2.66 0 3 C0 2.01 0 1.02 0 0 Z " fill="#D9725B" transform="translate(130,107)"/>
<path d="M0 0 C0.33 0 0.66 0 1 0 C1 1.98 1 3.96 1 6 C0.67 6 0.34 6 0 6 C0 4.02 0 2.04 0 0 Z " fill="#CE6956" transform="translate(135,90)"/>
<path d="M0 0 C0.33 0 0.66 0 1 0 C1 1.98 1 3.96 1 6 C0.67 6 0.34 6 0 6 C0 4.02 0 2.04 0 0 Z " fill="#B53D63" transform="translate(85,75)"/>
<path d="M0 0 C0.33 0 0.66 0 1 0 C1 1.98 1 3.96 1 6 C0.67 6 0.34 6 0 6 C0 4.02 0 2.04 0 0 Z " fill="#B53D68" transform="translate(101,40)"/>
<path d="M0 0 C0.33 0 0.66 0 1 0 C1 1.98 1 3.96 1 6 C0.67 6 0.34 6 0 6 C0 4.02 0 2.04 0 0 Z " fill="#B53E69" transform="translate(90,40)"/>
<path d="M0 0 C1.65 0 3.3 0 5 0 C5 0.33 5 0.66 5 1 C3.35 1 1.7 1 0 1 C0 0.67 0 0.34 0 0 Z " fill="#E98E3F" transform="translate(154,157)"/>
<path d="M0 0 C0.33 0 0.66 0 1 0 C1 1.65 1 3.3 1 5 C0.67 5 0.34 5 0 5 C0 3.35 0 1.7 0 0 Z " fill="#FFA45F" transform="translate(150,146)"/>
<path d="M0 0 C0.33 0 0.66 0 1 0 C1 1.65 1 3.3 1 5 C0.67 5 0.34 5 0 5 C0 3.35 0 1.7 0 0 Z " fill="#B73F69" transform="translate(44,132)"/>
<path d="M0 0 C0.33 0 0.66 0 1 0 C1 1.65 1 3.3 1 5 C0.67 5 0.34 5 0 5 C0 3.35 0 1.7 0 0 Z " fill="#D87B4B" transform="translate(146,120)"/>
<path d="M0 0 C0.33 0 0.66 0 1 0 C1 1.65 1 3.3 1 5 C0.67 5 0.34 5 0 5 C0 3.35 0 1.7 0 0 Z " fill="#B63E63" transform="translate(82,95)"/>
<path d="M0 0 C0.33 0 0.66 0 1 0 C1 1.65 1 3.3 1 5 C0.67 5 0.34 5 0 5 C0 3.35 0 1.7 0 0 Z " fill="#CD6553" transform="translate(140,92)"/>
<path d="M0 0 C0.33 0 0.66 0 1 0 C1 1.65 1 3.3 1 5 C0.67 5 0.34 5 0 5 C0 3.35 0 1.7 0 0 Z " fill="#B53D64" transform="translate(100,4)"/>
<path d="M0 0 C0.33 0 0.66 0 1 0 C1 1.65 1 3.3 1 5 C0.67 5 0.34 5 0 5 C0 3.35 0 1.7 0 0 Z " fill="#B9416A" transform="translate(106,4)"/>
<path d="M0 0 C1 4 1 4 1 4 Z " fill="#D66F4D" transform="translate(145,115)"/>
<path d="M0 0 C1 4 1 4 1 4 Z " fill="#DF7665" transform="translate(130,102)"/>
<path d="M0 0 C1 4 1 4 1 4 Z " fill="#C85E5B" transform="translate(128,85)"/>
<path d="M0 0 C1 4 1 4 1 4 Z " fill="#B64162" transform="translate(113,57)"/>
<path d="M0 0 C1 4 1 4 1 4 Z " fill="#BA4366" transform="translate(108,56)"/>
<path d="M0 0 C1 4 1 4 1 4 Z " fill="#B84068" transform="translate(88,30)"/>
<path d="" fill="#E9973E" transform="translate(0,0)"/>
<path d="" fill="#B43D6E" transform="translate(0,0)"/>
<path d="M0 0 C3 1 3 1 3 1 Z " fill="#C0486F" transform="translate(31,143)"/>
<path d="" fill="#EF935B" transform="translate(0,0)"/>
<path d="" fill="#D5734F" transform="translate(0,0)"/>
<path d="" fill="#CA6655" transform="translate(0,0)"/>
<path d="" fill="#D96B65" transform="translate(0,0)"/>
<path d="" fill="#C34971" transform="translate(0,0)"/>
<path d="" fill="#B33C68" transform="translate(0,0)"/>
<path d="" fill="#C14873" transform="translate(0,0)"/>
<path d="M0 0 C0.66 0.66 1.32 1.32 2 2 C1.34 2 0.68 2 0 2 C0 1.34 0 0.68 0 0 Z " fill="#B73E68" transform="translate(108,11)"/>
<path d="" fill="#B64066" transform="translate(0,0)"/>
<path d="" fill="#B53E66" transform="translate(0,0)"/>
<path d="" fill="#F4A14F" transform="translate(0,0)"/>
<path d="M0 0 C2 1 2 1 2 1 Z " fill="#B53D5E" transform="translate(36,141)"/>
<path d="M0 0 C2 1 2 1 2 1 Z " fill="#B63D64" transform="translate(38,140)"/>
<path d="M0 0 C2 1 2 1 2 1 Z " fill="#D4774F" transform="translate(142,108)"/>
<path d="" fill="#E87B70" transform="translate(0,0)"/>
<path d="" fill="#B53D67" transform="translate(0,0)"/>
<path d="" fill="#B63D65" transform="translate(0,0)"/>
<path d="" fill="#B83F6D" transform="translate(0,0)"/>
<path d="" fill="#B53E61" transform="translate(0,0)"/>
<path d="" fill="#B53D6A" transform="translate(0,0)"/>
<path d="" fill="#AD3B56" transform="translate(0,0)"/>
<path d="" fill="#B84254" transform="translate(0,0)"/>
<path d="" fill="#ED9D49" transform="translate(0,0)"/>
<path d="" fill="#BC456D" transform="translate(0,0)"/>
<path d="" fill="#BB456E" transform="translate(0,0)"/>
<path d="" fill="#DC8C44" transform="translate(0,0)"/>
<path d="" fill="#E6A345" transform="translate(0,0)"/>
<path d="" fill="#DD6940" transform="translate(0,0)"/>
<path d="" fill="#B63D69" transform="translate(0,0)"/>
<path d="" fill="#D87F57" transform="translate(0,0)"/>
<path d="" fill="#DA7359" transform="translate(0,0)"/>
<path d="" fill="#B5405D" transform="translate(0,0)"/>
<path d="" fill="#D16661" transform="translate(0,0)"/>
<path d="" fill="#BE476C" transform="translate(0,0)"/>
<path d="" fill="#B63D6E" transform="translate(0,0)"/>
<path d="" fill="#BB4370" transform="translate(0,0)"/>
<path d="" fill="#BB436B" transform="translate(0,0)"/>
<path d="" fill="#CA5278" transform="translate(0,0)"/>
<path d="" fill="#CD5478" transform="translate(0,0)"/>
<path d="" fill="#C04D5C" transform="translate(0,0)"/>
<path d="" fill="#C04C63" transform="translate(0,0)"/>
<path d="" fill="#BD446A" transform="translate(0,0)"/>
<path d="" fill="#BB436C" transform="translate(0,0)"/>
<path d="" fill="#B43B63" transform="translate(0,0)"/>
<path d="" fill="#B63E63" transform="translate(0,0)"/>
<path d="" fill="#B33B66" transform="translate(0,0)"/>
<path d="" fill="#B33B66" transform="translate(0,0)"/>
<path d="" fill="#B03A67" transform="translate(0,0)"/>
<path d="" fill="#B43F63" transform="translate(0,0)"/>
</svg>
